<svg xmlns="http://www.w3.org/2000/svg" width="22.333" height="20.223" viewBox="0 0 22.333 20.223">
  <g id="book-cover" transform="translate(0 -28.923)">
    <g id="Group_2471" data-name="Group 2471" transform="translate(0 28.923)">
      <path id="Path_13186" data-name="Path 13186" d="M343.116,70.446c.336-.159.678-.3,1.024-.433s.725-.248,1.093-.355.748-.2,1.126-.28.757-.146,1.138-.208.753-.1,1.13-.147c.371-.03.742-.069,1.113-.083l.885-.037a.532.532,0,0,0,.18-1.029,1.292,1.292,0,0,0-.65.033c-.329.054-.658.107-.985.173h-.006l-.022,0c-.363.074-.725.151-1.085.24-.376.093-.746.2-1.118.3a17.826,17.826,0,0,0-2.162.8,15.117,15.117,0,0,0-1.386.712c-.214.121-.419.261-.622.4a4.582,4.582,0,0,0-.442.338l.034-.013A5.825,5.825,0,0,1,343.116,70.446Z" transform="translate(-329.835 -66.419)" fill="#fff"/>
      <path id="Path_13187" data-name="Path 13187" d="M320.586,32.783c.3-.227.61-.439.928-.642a15.2,15.2,0,0,1,1.726-.921,16.256,16.256,0,0,1,2.177-.794,19.8,19.8,0,0,1,1.944-.444.532.532,0,0,0-.072-1.057.757.757,0,0,0-.262.053l-.43.141c-.352.116-.7.244-1.042.377a15.9,15.9,0,0,0-2.108,1,14.324,14.324,0,0,0-1.615,1.046,12.779,12.779,0,0,0-1.173.979c-.176.17-.351.34-.515.522a3.842,3.842,0,0,0-.38.464c.021-.025.042-.049.065-.072A5.753,5.753,0,0,1,320.586,32.783Z" transform="translate(-308.096 -28.924)" fill="#fff"/>
      <path id="Path_13188" data-name="Path 13188" d="M36.077,70.39c-.319-.2-.646-.384-.978-.561s-.689-.335-1.041-.485-.708-.292-1.07-.413-.739-.242-1.114-.351-.735-.2-1.105-.287c-.687-.169-1.39-.277-2.088-.391a.644.644,0,0,0-.361.02.532.532,0,0,0,.179,1.024l.787.033c.369.015.737.049,1.1.078s.764.077,1.139.139.754.125,1.129.2a15.9,15.9,0,0,1,2.232.62c.348.126.688.271,1.025.424a6.917,6.917,0,0,1,.856.465l.034.013A5.732,5.732,0,0,0,36.077,70.39Z" transform="translate(-26.968 -66.465)" fill="#fff"/>
      <path id="Path_13189" data-name="Path 13189" d="M72.362,29.977c.614.12,1.229.236,1.831.408a18.685,18.685,0,0,1,2.177.775c.356.151.7.33,1.044.509.234.123.467.253.691.394a10.524,10.524,0,0,1,1.741,1.309,1.826,1.826,0,0,1,.128.135,5.022,5.022,0,0,0-.621-.718,9.95,9.95,0,0,0-.835-.764,14.623,14.623,0,0,0-1.531-1.112A16.6,16.6,0,0,0,74.906,29.8c-.354-.157-.711-.3-1.073-.44-.326-.125-.658-.232-.99-.341a1.275,1.275,0,0,0-.376-.1.532.532,0,0,0-.1,1.054Z" transform="translate(-69.309 -28.923)" fill="#fff"/>
      <g id="Group_2469" data-name="Group 2469" transform="translate(13.626 3.352)">
        <path id="Path_13190" data-name="Path 13190" d="M381.6,120.786c-.221-.008-.451-.012-.681-.012A32.641,32.641,0,0,0,373.4,121.8v15.359a36.06,36.06,0,0,1,8.256-2.443.531.531,0,0,0,.451-.525V121.316A.531.531,0,0,0,381.6,120.786Z" transform="translate(-373.404 -120.774)" fill="#fff"/>
      </g>
      <path id="Path_13191" data-name="Path 13191" d="M263.489,148.81a3.46,3.46,0,0,1-3.134,0l-.1-.049h0c0,2.8,0,7.3,0,10.263v5.1c.022.08.4.483,1.669.483s1.648-.4,1.669-.483V148.762h0Z" transform="translate(-250.756 -144.388)" fill="#fff"/>
      <g id="Group_2470" data-name="Group 2470" transform="translate(0 3.352)">
        <path id="Path_13192" data-name="Path 13192" d="M.512,120.785a.531.531,0,0,0-.512.531v12.877a.531.531,0,0,0,.451.525,36.058,36.058,0,0,1,8.256,2.443v-4.785c0-3.412,0-7.341,0-10.574a32.65,32.65,0,0,0-7.514-1.028C.963,120.773.734,120.777.512,120.785Z" transform="translate(0 -120.773)" fill="#fff"/>
      </g>
    </g>
  </g>
</svg>
