<svg xmlns="http://www.w3.org/2000/svg" width="26.339" height="26.936" viewBox="0 0 26.339 26.936">
  <g id="Group_2569" data-name="Group 2569" transform="translate(0)">
    <path id="Path_13220" data-name="Path 13220" d="M120.391,258.853a.611.611,0,0,0-.611-.611h-2.133a.611.611,0,0,0-.611.611v2.133a.611.611,0,0,0,.611.611h2.133a.611.611,0,0,0,.611-.611v-2.133Z" transform="translate(-110.876 -243.992)" fill="#c2b5a0"/>
    <path id="Path_13221" data-name="Path 13221" d="M217.026,258.853a.611.611,0,0,0-.611-.611h-2.134a.611.611,0,0,0-.611.611v2.133a.611.611,0,0,0,.611.611h2.134a.611.611,0,0,0,.611-.611Z" transform="translate(-202.178 -243.992)" fill="#c2b5a0"/>
    <path id="Path_13222" data-name="Path 13222" d="M313.654,258.853a.611.611,0,0,0-.611-.611h-2.133a.611.611,0,0,0-.611.611v2.133a.611.611,0,0,0,.611.611h2.133a.611.611,0,0,0,.611-.611Z" transform="translate(-293.475 -243.992)" fill="#c2b5a0"/>
    <path id="Path_13223" data-name="Path 13223" d="M120.391,355.486a.611.611,0,0,0-.611-.611h-2.133a.611.611,0,0,0-.611.611v2.133a.611.611,0,0,0,.611.611h2.133a.611.611,0,0,0,.611-.611v-2.133Z" transform="translate(-110.876 -335.293)" fill="#c2b5a0"/>
    <path id="Path_13224" data-name="Path 13224" d="M217.026,355.486a.611.611,0,0,0-.611-.611h-2.134a.611.611,0,0,0-.611.611v2.133a.611.611,0,0,0,.611.611h2.134a.611.611,0,0,0,.611-.611Z" transform="translate(-202.178 -335.293)" fill="#c2b5a0"/>
    <path id="Path_13225" data-name="Path 13225" d="M313.654,355.486a.611.611,0,0,0-.611-.611h-2.134a.611.611,0,0,0-.611.611v2.133a.611.611,0,0,0,.611.611h2.134a.611.611,0,0,0,.611-.611v-2.133Z" transform="translate(-293.475 -335.293)" fill="#c2b5a0"/>
    <path id="Path_13226" data-name="Path 13226" d="M29.405,54.154v3.258a2.661,2.661,0,0,1-2.667,2.66H25.055a2.675,2.675,0,0,1-2.683-2.66v-3.27H14.788v3.27a2.675,2.675,0,0,1-2.683,2.66H10.423a2.661,2.661,0,0,1-2.667-2.66V54.154a2.425,2.425,0,0,0-2.344,2.413v19.1A2.427,2.427,0,0,0,7.825,78.09h21.51a2.429,2.429,0,0,0,2.414-2.429v-19.1A2.425,2.425,0,0,0,29.405,54.154Zm-.781,20.319a1.044,1.044,0,0,1-1.044,1.044H9.535a1.044,1.044,0,0,1-1.044-1.044V64.609a1.044,1.044,0,0,1,1.044-1.044H27.58a1.044,1.044,0,0,1,1.044,1.044v9.863Z" transform="translate(-5.411 -51.154)" fill="#c2b5a0"/>
    <path id="Path_13227" data-name="Path 13227" d="M80.465,7.17h1.664a.914.914,0,0,0,.915-.914V.914A.915.915,0,0,0,82.129,0H80.465a.915.915,0,0,0-.915.914V6.256A.914.914,0,0,0,80.465,7.17Z" transform="translate(-75.459)" fill="#c2b5a0"/>
    <path id="Path_13228" data-name="Path 13228" d="M345.373,7.17h1.664a.914.914,0,0,0,.914-.914V.914A.914.914,0,0,0,347.037,0h-1.664a.915.915,0,0,0-.915.914V6.256A.914.914,0,0,0,345.373,7.17Z" transform="translate(-325.75)" fill="#c2b5a0"/>
  </g>
</svg>
