<svg xmlns="http://www.w3.org/2000/svg" width="65" height="64.996" viewBox="0 0 65 64.996">
  <g id="call" transform="translate(-1 -1.018)">
    <g id="Group_2632" data-name="Group 2632" transform="translate(1 1.018)">
      <g id="Group_2631" data-name="Group 2631" transform="translate(0 0)">
        <path id="Path_13232" data-name="Path 13232" d="M64.295,51.16,51.139,42.386A3.84,3.84,0,0,0,46,43.221l-3.832,4.927a1.638,1.638,0,0,1-2.1.442l-.729-.4c-2.417-1.317-5.423-2.957-11.482-9.017s-7.7-9.069-9.019-11.482l-.4-.729a1.64,1.64,0,0,1,.433-2.108l4.924-3.831a3.842,3.842,0,0,0,.836-5.142L15.855,2.723a3.82,3.82,0,0,0-5.149-1.159l-5.5,3.3A7.76,7.76,0,0,0,1.666,9.462c-1.981,7.218-.491,19.676,17.86,38.029,14.6,14.6,25.466,18.522,32.935,18.522a19.191,19.191,0,0,0,5.091-.665,7.753,7.753,0,0,0,4.593-3.539l3.308-5.5A3.82,3.82,0,0,0,64.295,51.16Zm-.708,4.04-3.3,5.5a5.6,5.6,0,0,1-3.3,2.561c-6.664,1.829-18.306.314-35.924-17.3S1.926,16.7,3.755,10.035A5.607,5.607,0,0,1,6.319,6.727l5.5-3.3a1.657,1.657,0,0,1,2.235.5l4.766,7.155,4,6a1.667,1.667,0,0,1-.362,2.231l-4.925,3.831a3.791,3.791,0,0,0-1,4.866l.391.711c1.384,2.539,3.105,5.7,9.389,11.98s9.441,8,11.979,9.388l.712.392a3.791,3.791,0,0,0,4.866-1L47.7,44.553a1.668,1.668,0,0,1,2.231-.362l13.155,8.774A1.656,1.656,0,0,1,63.586,55.2Z" transform="translate(-1 -1.018)" fill="#fff"/>
        <path id="Path_13233" data-name="Path 13233" d="M283.711,71.49A18.435,18.435,0,0,1,302.125,89.9a1.083,1.083,0,1,0,2.166,0,20.6,20.6,0,0,0-20.58-20.58,1.083,1.083,0,0,0,0,2.166Z" transform="translate(-246.88 -60.654)" fill="#fff"/>
        <path id="Path_13234" data-name="Path 13234" d="M283.711,122.69a11.929,11.929,0,0,1,11.915,11.915,1.083,1.083,0,1,0,2.166,0,14.1,14.1,0,0,0-14.081-14.081,1.083,1.083,0,0,0,0,2.166Z" transform="translate(-246.88 -105.355)" fill="#fff"/>
        <path id="Path_13235" data-name="Path 13235" d="M283.711,173.89a5.422,5.422,0,0,1,5.416,5.416,1.083,1.083,0,1,0,2.166,0,7.591,7.591,0,0,0-7.582-7.582,1.083,1.083,0,0,0,0,2.166Z" transform="translate(-246.88 -150.055)" fill="#fff"/>
      </g>
    </g>
  </g>
</svg>
