<svg xmlns="http://www.w3.org/2000/svg" width="65" height="64.998" viewBox="0 0 65 64.998">
  <g id="email_2_" data-name="email (2)" transform="translate(-0.001 -0.005)">
    <g id="Group_2630" data-name="Group 2630" transform="translate(0.001 0.004)">
      <g id="Group_2629" data-name="Group 2629" transform="translate(0 0)">
        <path id="Path_13230" data-name="Path 13230" d="M64.987,24.853a1.024,1.024,0,0,0-.044-.22,1.083,1.083,0,0,0-.062-.186.972.972,0,0,0-.108-.166,1.022,1.022,0,0,0-.144-.168c-.017-.015-.025-.036-.043-.051L54.167,15.97V7.584a3.25,3.25,0,0,0-3.25-3.25H39.176l-4.7-3.65a3.212,3.212,0,0,0-3.951,0l-4.7,3.65H14.081a3.25,3.25,0,0,0-3.25,3.25V15.97L.416,24.062c-.018.015-.026.036-.043.051a1.016,1.016,0,0,0-.144.168.967.967,0,0,0-.108.166,1.069,1.069,0,0,0-.062.186,1.027,1.027,0,0,0-.044.217c0,.023-.013.042-.013.065V61.753a3.214,3.214,0,0,0,.636,1.912c.006.01.008.022.015.03s.024.018.035.03A3.234,3.234,0,0,0,3.248,65h58.5a3.235,3.235,0,0,0,2.57-1.283c.009-.011.022-.014.029-.025s.009-.021.015-.03A3.214,3.214,0,0,0,65,61.753V24.918C65,24.9,64.988,24.876,64.987,24.853ZM31.849,2.393a1.039,1.039,0,0,1,1.292,0l2.5,1.94H29.357ZM3.521,62.836l28.328-22a1.04,1.04,0,0,1,1.292,0l28.336,22Zm59.313-1.689L34.475,39.122a3.214,3.214,0,0,0-3.951,0L2.164,61.147V26.568L19.918,40.354a1.084,1.084,0,0,0,1.328-1.713l-18.036-14,7.622-5.923v8.371a1.083,1.083,0,1,0,2.167,0V7.584A1.083,1.083,0,0,1,14.081,6.5H50.916A1.083,1.083,0,0,1,52,7.584v19.5a1.083,1.083,0,1,0,2.167,0V18.713l7.622,5.923L43.72,38.666a1.083,1.083,0,1,0,1.328,1.712l17.785-13.81V61.147Z" transform="translate(-0.001 -0.004)" fill="#fff"/>
        <path id="Path_13231" data-name="Path 13231" d="M179.575,85.571V81.238a13,13,0,1,0-13,13,1.083,1.083,0,0,0,0-2.167,10.834,10.834,0,1,1,10.834-10.834v4.333a2.167,2.167,0,1,1-4.334,0V81.238a1.083,1.083,0,1,0-2.167,0,4.333,4.333,0,1,1-4.333-4.333,1.083,1.083,0,0,0,0-2.167,6.5,6.5,0,1,0,4.38,11.29,4.322,4.322,0,0,0,8.62-.456Z" transform="translate(-134.077 -59.574)" fill="#fff"/>
      </g>
    </g>
  </g>
</svg>
