<svg xmlns="http://www.w3.org/2000/svg" width="31.992" height="20.072" viewBox="0 0 31.992 20.072">
  <g id="black-graduation-cap-tool-of-university-student-for-head" transform="translate(0 -5.96)">
    <g id="Group_2567" data-name="Group 2567">
      <path id="Path_13217" data-name="Path 13217" d="M6.952,17.189V22.2a27.975,27.975,0,0,1,9.071-2,27.985,27.985,0,0,1,9.072,2V17.119a22.694,22.694,0,0,0-9.143-2.426A21.185,21.185,0,0,0,6.952,17.189Z" fill="#c2b5a0"/>
      <path id="Path_13218" data-name="Path 13218" d="M30.188,15.995l1.8-.97-1.8-1v-.474s.508-2.576-2.379-1.229a.531.531,0,0,0-.258.24L15.645,5.96,0,14.914,5.908,17.6v-.871a23.659,23.659,0,0,1,10.038-2.783,25.293,25.293,0,0,1,10.193,2.7V18.17L29.4,16.418v7.093H28.315v2.521l1.444-1,1.6,1V23.51H30.188V15.995ZM29.4,13.114v.475l-.952-.528C28.8,12.831,29.4,12.512,29.4,13.114ZM29.078,15.9a.762.762,0,1,1,.763-.762A.764.764,0,0,1,29.078,15.9Z" fill="#c2b5a0"/>
    </g>
  </g>
</svg>
