<svg id="Слой_1" data-name="Слой 1" xmlns="http://www.w3.org/2000/svg" viewBox="0 0 180.07 35.56"><defs><style>.cls-1{fill:#e41e0a;}</style></defs><title>logo ad red</title><g id="Слой_2" data-name="Слой 2"><g id="Layer_1" data-name="Layer 1"><path class="cls-1" d="M52.49,0h6.32V34.92H52.49V32.25a12.18,12.18,0,0,1-3.72,2.54,10.36,10.36,0,0,1-4,.77,11.2,11.2,0,0,1-8.44-3.78,13.13,13.13,0,0,1-3.56-9.41,13.52,13.52,0,0,1,3.44-9.57,11,11,0,0,1,8.37-3.72,10.77,10.77,0,0,1,4.26.85,11.64,11.64,0,0,1,3.68,2.57ZM45.84,14.91A6.4,6.4,0,0,0,41,17a7.53,7.53,0,0,0-2,5.3,7.52,7.52,0,0,0,2,5.37,6.41,6.41,0,0,0,4.86,2.11A6.5,6.5,0,0,0,50.8,27.7a7.56,7.56,0,0,0,2-5.43,7.37,7.37,0,0,0-2-5.32,6.55,6.55,0,0,0-5-2"/><path class="cls-1" d="M74.15,9.72h6.33v2.59a14.84,14.84,0,0,1,3.89-2.52,9.28,9.28,0,0,1,3.57-.71,8.64,8.64,0,0,1,6.36,2.61c1.47,1.48,2.2,3.68,2.2,6.58V34.92H90.25v-11a28.05,28.05,0,0,0-.41-6,4.16,4.16,0,0,0-1.41-2.25,3.94,3.94,0,0,0-2.43-.8,4.58,4.58,0,0,0-3.29,1.28A6.84,6.84,0,0,0,80.8,19.7a29.09,29.09,0,0,0-.27,5.11V34.92H74.15Z"/><path class="cls-1" d="M119.05,0h6.32V34.92h-6.32V32.25a12.25,12.25,0,0,1-3.71,2.54,10.36,10.36,0,0,1-4,.77,11.2,11.2,0,0,1-8.44-3.78,13.13,13.13,0,0,1-3.56-9.41,13.58,13.58,0,0,1,3.44-9.57,11,11,0,0,1,8.38-3.72,10.68,10.68,0,0,1,4.25.85,11.64,11.64,0,0,1,3.68,2.57ZM112.4,14.91A6.4,6.4,0,0,0,107.53,17a7.49,7.49,0,0,0-1.93,5.32,7.52,7.52,0,0,0,2,5.37,6.41,6.41,0,0,0,4.86,2.11,6.48,6.48,0,0,0,4.93-2.08,7.56,7.56,0,0,0,2-5.43,7.37,7.37,0,0,0-2-5.32,6.55,6.55,0,0,0-5-2"/><path class="cls-1" d="M154.84,24.15h-20.3a6.71,6.71,0,0,0,2.35,4.27A7.39,7.39,0,0,0,141.76,30a8.43,8.43,0,0,0,6.09-2.48l5.32,2.5a12.46,12.46,0,0,1-4.76,4.18,15,15,0,0,1-6.6,1.35,13.07,13.07,0,0,1-9.66-3.73,12.78,12.78,0,0,1-3.73-9.37,13.12,13.12,0,0,1,3.72-9.57,12.47,12.47,0,0,1,9.32-3.81,13,13,0,0,1,9.68,3.81A13.79,13.79,0,0,1,154.87,23Zm-6.32-5a6.38,6.38,0,0,0-2.47-3.43,7.19,7.19,0,0,0-4.28-1.31,7.58,7.58,0,0,0-4.64,1.48,8.31,8.31,0,0,0-2.32,3.26Z"/><polygon class="cls-1" points="154.46 9.72 161.8 9.72 166.78 16.59 171.73 9.72 178.95 9.72 170.4 21.58 180.07 34.92 172.73 34.92 166.74 26.65 160.77 34.92 153.55 34.92 163.12 21.66 154.46 9.72"/><path class="cls-1" d="M13.13.86h6.58l13.1,34.06H26.07l-2.66-7H9.51l-2.77,7H0Zm3.33,9L11.89,21.58H21Z"/><polygon class="cls-1" points="63.27 0 63.27 5.84 69.63 5.84 63.27 9.1 63.27 34.92 69.71 34.92 69.71 0 63.27 0"/></g></g></svg>