<svg xmlns="http://www.w3.org/2000/svg" width="28.636" height="34.412" viewBox="0 0 28.636 34.412">
  <g id="female-graduate-student" transform="translate(-35.302 -0.001)">
    <g id="Group_2568" data-name="Group 2568" transform="translate(35.302 0.001)">
      <path id="Path_13219" data-name="Path 13219" d="M61.053,22.5a2.766,2.766,0,0,0-1.576-1.345l-2.115-.973c0-1.553-.017-9.286-.008-10.1a10.18,10.18,0,0,0-.471-3.373l2.634-.952.006,2.433h-.179a.23.23,0,0,0-.249.2L58.863,10.4a.23.23,0,0,0,.206.254h1.839a.231.231,0,0,0,.206-.256q-.07-.592-.139-1.183l-.1-.826a.23.23,0,0,0-.249-.2h-.179l0-2.772.094-.034.311-.112a.666.666,0,0,0,0-1.252L49.847.04a.662.662,0,0,0-.453,0L38.38,4.021a.666.666,0,0,0,0,1.252l3.994,1.444a10.227,10.227,0,0,0-.495,3.458V20.183l-2.115.974A2.789,2.789,0,0,0,38.188,22.5s-4.663,11.912-2.134,11.912H63.187C65.716,34.413,61.053,22.5,61.053,22.5ZM53.86,21.478a6.82,6.82,0,0,0-4.234,5.308c0,.011-.009.011-.011,0a6.821,6.821,0,0,0-4.234-5.308l2.327-2.311c-3.28-1.471-4.153-6.474-4.153-6.474a6.639,6.639,0,0,1-.208-1.218c1.642-.112,7.374-.606,7.766-2.464.54,1,3.4,3.506,4.558,3.7,0,0-1.123,4.947-4.191,6.455Z" transform="translate(-35.302 -0.001)" fill="#c2b5a0"/>
    </g>
  </g>
</svg>
