<svg xmlns="http://www.w3.org/2000/svg" width="28.338" height="29.725" viewBox="0 0 28.338 29.725">
  <g id="chronometer_1_" data-name="chronometer (1)" transform="translate(-14.269 0)">
    <path id="Path_13216" data-name="Path 13216" d="M41.928,18.252a12.772,12.772,0,0,1-25.41.025H15.262A.992.992,0,0,1,14.4,16.79l2.808-4.863a.992.992,0,0,1,1.717,0l2.808,4.863a.992.992,0,0,1-.859,1.487H19.785A9.525,9.525,0,1,0,23.964,9a1.686,1.686,0,0,1-2.258-.3,1.621,1.621,0,0,1,.373-2.337,12.69,12.69,0,0,1,5.558-2.083V2.437h-1.3a.81.81,0,0,1-.81-.81V.81a.81.81,0,0,1,.81-.81h6.033a.81.81,0,0,1,.81.81v.817a.81.81,0,0,1-.81.81H30.936V4.3A12.787,12.787,0,0,1,41.928,18.252Zm.42-12.265L39.9,3.728a.81.81,0,0,0-1.145.045l-.646.7a.81.81,0,0,0,.045,1.145L40.6,7.877a.811.811,0,0,0,1.145-.045l.646-.7A.81.81,0,0,0,42.347,5.987Zm-13.165,3.1v7.926H37.03A7.7,7.7,0,0,0,29.183,9.089Z" fill="#c2b5a0"/>
  </g>
</svg>
